<svg width="110" height="18" viewBox="0 0 110 18" fill="none" xmlns="http://www.w3.org/2000/svg">
<path d="M-2.23517e-07 13.23V0.26998H7.92V2.71798H2.448V5.52598H6.84V7.97398H2.448V13.23H-2.23517e-07ZM10.9934 13.5C10.2974 13.5 9.70636 13.368 9.22036 13.104C8.74036 12.834 8.37436 12.477 8.12236 12.033C7.87636 11.583 7.75336 11.088 7.75336 10.548C7.75336 10.098 7.82236 9.68698 7.96036 9.31498C8.09836 8.94298 8.32036 8.61598 8.62636 8.33398C8.93836 8.04598 9.35536 7.80598 9.87736 7.61398C10.2374 7.48198 10.6664 7.36498 11.1644 7.26298C11.6624 7.16098 12.2264 7.06498 12.8564 6.97498C13.4864 6.87898 14.1794 6.77398 14.9354 6.65998L14.0534 7.14598C14.0534 6.56998 13.9154 6.14698 13.6394 5.87698C13.3634 5.60698 12.9014 5.47198 12.2534 5.47198C11.8934 5.47198 11.5184 5.55898 11.1284 5.73298C10.7384 5.90698 10.4654 6.21598 10.3094 6.65998L8.09536 5.95798C8.34136 5.15398 8.80336 4.49998 9.48136 3.99598C10.1594 3.49198 11.0834 3.23998 12.2534 3.23998C13.1114 3.23998 13.8734 3.37198 14.5394 3.63598C15.2054 3.89998 15.7094 4.35598 16.0514 5.00398C16.2434 5.36398 16.3574 5.72398 16.3934 6.08398C16.4294 6.44398 16.4474 6.84598 16.4474 7.28998V13.23H14.3054V11.232L14.6114 11.646C14.1374 12.3 13.6244 12.774 13.0724 13.068C12.5264 13.356 11.8334 13.5 10.9934 13.5ZM11.5154 11.574C11.9654 11.574 12.3434 11.496 12.6494 11.34C12.9614 11.178 13.2074 10.995 13.3874 10.791C13.5734 10.587 13.6994 10.416 13.7654 10.278C13.8914 10.014 13.9634 9.70798 13.9814 9.35998C14.0054 9.00598 14.0174 8.71198 14.0174 8.47798L14.7374 8.65798C14.0114 8.77798 13.4234 8.87998 12.9734 8.96398C12.5234 9.04198 12.1604 9.11398 11.8844 9.17998C11.6084 9.24598 11.3654 9.31798 11.1554 9.39598C10.9154 9.49198 10.7204 9.59698 10.5704 9.71098C10.4264 9.81898 10.3184 9.93898 10.2464 10.071C10.1804 10.203 10.1474 10.35 10.1474 10.512C10.1474 10.734 10.2014 10.926 10.3094 11.088C10.4234 11.244 10.5824 11.364 10.7864 11.448C10.9904 11.532 11.2334 11.574 11.5154 11.574ZM29.5875 13.23V7.48798C29.5875 6.84598 29.4345 6.34798 29.1285 5.99398C28.8285 5.63398 28.4115 5.45398 27.8775 5.45398C27.5355 5.45398 27.2385 5.53498 26.9865 5.69698C26.7345 5.85298 26.5365 6.07498 26.3925 6.36298C26.2545 6.64498 26.1855 6.97198 26.1855 7.34398L25.1595 6.65998C25.1595 5.99398 25.3155 5.40598 25.6275 4.89598C25.9455 4.38598 26.3685 3.98998 26.8965 3.70798C27.4305 3.41998 28.0215 3.27598 28.6695 3.27598C29.7795 3.27598 30.6165 3.60598 31.1805 4.26598C31.7505 4.91998 32.0355 5.77798 32.0355 6.83998V13.23H29.5875ZM17.8695 13.23V3.50998H20.0295V6.73198H20.3355V13.23H17.8695ZM23.7375 13.23V7.48798C23.7375 6.84598 23.5845 6.34798 23.2785 5.99398C22.9785 5.63398 22.5615 5.45398 22.0275 5.45398C21.5175 5.45398 21.1065 5.63098 20.7945 5.98498C20.4885 6.33298 20.3355 6.78598 20.3355 7.34398L19.3095 6.62398C19.3095 5.98798 19.4685 5.41798 19.7865 4.91398C20.1045 4.40998 20.5305 4.01098 21.0645 3.71698C21.6045 3.42298 22.2075 3.27598 22.8735 3.27598C23.6355 3.27598 24.2595 3.43798 24.7455 3.76198C25.2375 4.08598 25.6005 4.51798 25.8345 5.05798C26.0685 5.59798 26.1855 6.19198 26.1855 6.83998V13.23H23.7375ZM33.6558 2.15998V-1.97887e-05H36.1038V2.15998H33.6558ZM33.6558 13.23V3.50998H36.1038V13.23H33.6558ZM38.082 13.23V-1.97887e-05H40.53V13.23H38.082ZM43.5701 17.55L45.4421 12.402L45.4781 13.914L41.2481 3.50998H43.7861L46.6301 10.872H46.0541L48.8801 3.50998H51.3281L45.8381 17.55H43.5701ZM51.6937 13.23V0.26998H59.6137V2.71798H54.1417V5.52598H58.5337V7.97398H54.1417V13.23H51.6937ZM60.3387 13.23V3.50998H62.4987V5.88598L62.2647 5.57998C62.3907 5.24398 62.5587 4.93798 62.7687 4.66198C62.9787 4.38598 63.2367 4.15798 63.5427 3.97798C63.7767 3.83398 64.0317 3.72298 64.3077 3.64498C64.5837 3.56098 64.8687 3.50998 65.1627 3.49198C65.4567 3.46798 65.7507 3.47398 66.0447 3.50998V5.79598C65.7747 5.71198 65.4597 5.68498 65.0997 5.71498C64.7457 5.73898 64.4247 5.81998 64.1367 5.95798C63.8487 6.08998 63.6057 6.26698 63.4077 6.48898C63.2097 6.70498 63.0597 6.96298 62.9577 7.26298C62.8557 7.55698 62.8047 7.88998 62.8047 8.26198V13.23H60.3387ZM67.0366 2.15998V-1.97887e-05H69.4846V2.15998H67.0366ZM67.0366 13.23V3.50998H69.4846V13.23H67.0366ZM75.8008 13.5C74.8048 13.5 73.9258 13.287 73.1638 12.861C72.4078 12.429 71.8138 11.838 71.3818 11.088C70.9558 10.332 70.7428 9.46798 70.7428 8.49598C70.7428 7.43398 70.9528 6.50998 71.3728 5.72398C71.7928 4.93798 72.3718 4.32898 73.1098 3.89698C73.8478 3.45898 74.6968 3.23998 75.6568 3.23998C76.6768 3.23998 77.5438 3.47998 78.2578 3.95998C78.9718 4.43998 79.4998 5.11498 79.8418 5.98498C80.1838 6.85498 80.3038 7.87798 80.2018 9.05398H77.7808V8.15398C77.7808 7.16398 77.6218 6.45298 77.3038 6.02098C76.9918 5.58298 76.4788 5.36398 75.7648 5.36398C74.9308 5.36398 74.3158 5.61898 73.9198 6.12898C73.5298 6.63298 73.3348 7.37998 73.3348 8.36998C73.3348 9.27598 73.5298 9.97798 73.9198 10.476C74.3158 10.968 74.8948 11.214 75.6568 11.214C76.1368 11.214 76.5478 11.109 76.8898 10.899C77.2318 10.689 77.4928 10.386 77.6728 9.98998L80.1208 10.692C79.7548 11.58 79.1758 12.27 78.3838 12.762C77.5978 13.254 76.7368 13.5 75.8008 13.5ZM72.5788 9.05398V7.23598H79.0228V9.05398H72.5788ZM87.6943 13.23V8.63998C87.6943 8.41798 87.6823 8.13598 87.6583 7.79398C87.6343 7.44598 87.5593 7.09798 87.4333 6.74998C87.3073 6.40198 87.1003 6.11098 86.8123 5.87698C86.5303 5.64298 86.1283 5.52598 85.6063 5.52598C85.3963 5.52598 85.1713 5.55898 84.9313 5.62498C84.6913 5.69098 84.4663 5.81998 84.2563 6.01198C84.0463 6.19798 83.8723 6.47398 83.7343 6.83998C83.6023 7.20598 83.5363 7.69198 83.5363 8.29798L82.1323 7.63198C82.1323 6.86398 82.2883 6.14398 82.6003 5.47198C82.9123 4.79998 83.3803 4.25698 84.0043 3.84298C84.6343 3.42898 85.4263 3.22198 86.3803 3.22198C87.1423 3.22198 87.7633 3.35098 88.2433 3.60898C88.7233 3.86698 89.0953 4.19398 89.3593 4.58998C89.6293 4.98598 89.8213 5.39998 89.9353 5.83198C90.0493 6.25798 90.1183 6.64798 90.1423 7.00198C90.1663 7.35598 90.1783 7.61398 90.1783 7.77598V13.23H87.6943ZM81.0523 13.23V3.50998H83.2303V6.73198H83.5363V13.23H81.0523ZM95.3799 13.5C94.4859 13.5 93.7029 13.275 93.0309 12.825C92.3589 12.375 91.8339 11.763 91.4559 10.989C91.0839 10.215 90.8979 9.34198 90.8979 8.36998C90.8979 7.37998 91.0869 6.50098 91.4649 5.73298C91.8489 4.95898 92.3859 4.34998 93.0759 3.90598C93.7659 3.46198 94.5759 3.23998 95.5059 3.23998C96.4299 3.23998 97.2069 3.46498 97.8369 3.91498C98.4669 4.36498 98.9439 4.97698 99.2679 5.75098C99.5919 6.52498 99.7539 7.39798 99.7539 8.36998C99.7539 9.34198 99.5889 10.215 99.2589 10.989C98.9349 11.763 98.4489 12.375 97.8009 12.825C97.1529 13.275 96.3459 13.5 95.3799 13.5ZM95.7759 11.322C96.3219 11.322 96.7569 11.199 97.0809 10.953C97.4109 10.707 97.6479 10.362 97.7919 9.91798C97.9359 9.47398 98.0079 8.95798 98.0079 8.36998C98.0079 7.78198 97.9359 7.26598 97.7919 6.82198C97.6479 6.37798 97.4169 6.03298 97.0989 5.78698C96.7869 5.54098 96.3759 5.41798 95.8659 5.41798C95.3199 5.41798 94.8699 5.55298 94.5159 5.82298C94.1679 6.08698 93.9099 6.44398 93.7419 6.89398C93.5739 7.33798 93.4899 7.82998 93.4899 8.36998C93.4899 8.91598 93.5709 9.41398 93.7329 9.86398C93.8949 10.308 94.1439 10.662 94.4799 10.926C94.8159 11.19 95.2479 11.322 95.7759 11.322ZM98.0079 13.23V6.56998H97.7019V0.26998H100.168V13.23H98.0079ZM105.586 13.5C104.362 13.5 103.372 13.224 102.616 12.672C101.866 12.114 101.41 11.328 101.248 10.314L103.75 9.93598C103.852 10.392 104.077 10.749 104.425 11.007C104.779 11.265 105.226 11.394 105.766 11.394C106.21 11.394 106.552 11.31 106.792 11.142C107.032 10.968 107.152 10.728 107.152 10.422C107.152 10.23 107.104 10.077 107.008 9.96298C106.912 9.84298 106.696 9.72598 106.36 9.61198C106.03 9.49798 105.514 9.34798 104.812 9.16198C104.02 8.95798 103.387 8.72998 102.913 8.47798C102.439 8.22598 102.097 7.92598 101.887 7.57798C101.677 7.22398 101.572 6.79798 101.572 6.29998C101.572 5.67598 101.731 5.13598 102.049 4.67998C102.367 4.21798 102.814 3.86398 103.39 3.61798C103.972 3.36598 104.656 3.23998 105.442 3.23998C106.204 3.23998 106.879 3.35698 107.467 3.59098C108.055 3.82498 108.529 4.15798 108.889 4.58998C109.255 5.02198 109.48 5.53198 109.564 6.11998L107.062 6.56998C107.02 6.20998 106.864 5.92498 106.594 5.71498C106.324 5.50498 105.958 5.38198 105.496 5.34598C105.046 5.31598 104.683 5.37598 104.407 5.52598C104.137 5.67598 104.002 5.89198 104.002 6.17398C104.002 6.34198 104.059 6.48298 104.173 6.59698C104.293 6.71098 104.536 6.82798 104.902 6.94798C105.274 7.06798 105.838 7.22398 106.594 7.41598C107.332 7.60798 107.923 7.83298 108.367 8.09098C108.817 8.34298 109.144 8.64898 109.348 9.00898C109.552 9.36298 109.654 9.79198 109.654 10.296C109.654 11.292 109.294 12.075 108.574 12.645C107.854 13.215 106.858 13.5 105.586 13.5Z" fill="black"/>
</svg>
